<?xml version="1.0" encoding="UTF-8" standalone="no"?>
<svg
   xmlns:dc="http://purl.org/dc/elements/1.1/"
   xmlns:cc="http://creativecommons.org/ns#"
   xmlns:rdf="http://www.w3.org/1999/02/22-rdf-syntax-ns#"
   xmlns:svg="http://www.w3.org/2000/svg"
   xmlns="http://www.w3.org/2000/svg"
   xmlns:sodipodi="http://sodipodi.sourceforge.net/DTD/sodipodi-0.dtd"
   xmlns:inkscape="http://www.inkscape.org/namespaces/inkscape"
   width="107.62128mm"
   height="535.13861mm"
   viewBox="0 0 107.62128 535.13861"
   version="1.1"
   id="svg8"
   inkscape:version="1.0.2 (e86c870879, 2021-01-15)"
   sodipodi:docname="rocket.svg">
  <defs
     id="defs2">
    <marker
       style="overflow:visible"
       id="marker1312"
       refX="0.0"
       refY="0.0"
       orient="auto"
       inkscape:stockid="Arrow1Lstart"
       inkscape:isstock="true">
      <path
         transform="scale(0.8) translate(12.5,0)"
         style="fill-rule:evenodd;stroke:#000000;stroke-width:1.0pt"
         d="M 0.0,0.0 L 5.0,-5.0 L -12.5,0.0 L 5.0,5.0 L 0.0,0.0 z "
         id="path1310" />
    </marker>
    <marker
       style="overflow:visible"
       id="marker1278"
       refX="0.0"
       refY="0.0"
       orient="auto"
       inkscape:stockid="Arrow1Lstart"
       inkscape:isstock="true">
      <path
         transform="scale(0.8) translate(12.5,0)"
         style="fill-rule:evenodd;stroke:#000000;stroke-width:1.0pt"
         d="M 0.0,0.0 L 5.0,-5.0 L -12.5,0.0 L 5.0,5.0 L 0.0,0.0 z "
         id="path1276" />
    </marker>
    <marker
       style="overflow:visible"
       id="marker1250"
       refX="0.0"
       refY="0.0"
       orient="auto"
       inkscape:stockid="Arrow1Lstart"
       inkscape:isstock="true">
      <path
         transform="scale(0.8) translate(12.5,0)"
         style="fill-rule:evenodd;stroke:#000000;stroke-width:1.0pt"
         d="M 0.0,0.0 L 5.0,-5.0 L -12.5,0.0 L 5.0,5.0 L 0.0,0.0 z "
         id="path1248" />
    </marker>
    <marker
       style="overflow:visible;"
       id="Arrow1Lend"
       refX="0.0"
       refY="0.0"
       orient="auto"
       inkscape:stockid="Arrow1Lend"
       inkscape:isstock="true">
      <path
         transform="scale(0.8) rotate(180) translate(12.5,0)"
         style="fill-rule:evenodd;stroke:#000000;stroke-width:1.0pt;"
         d="M 0.0,0.0 L 5.0,-5.0 L -12.5,0.0 L 5.0,5.0 L 0.0,0.0 z "
         id="path957" />
    </marker>
    <marker
       style="overflow:visible"
       id="marker1226"
       refX="0.0"
       refY="0.0"
       orient="auto"
       inkscape:stockid="Arrow1Lstart"
       inkscape:isstock="true">
      <path
         transform="scale(0.8) translate(12.5,0)"
         style="fill-rule:evenodd;stroke:#000000;stroke-width:1.0pt"
         d="M 0.0,0.0 L 5.0,-5.0 L -12.5,0.0 L 5.0,5.0 L 0.0,0.0 z "
         id="path1224" />
    </marker>
    <marker
       style="overflow:visible"
       id="Arrow1Lstart"
       refX="0.0"
       refY="0.0"
       orient="auto"
       inkscape:stockid="Arrow1Lstart"
       inkscape:isstock="true">
      <path
         transform="scale(0.8) translate(12.5,0)"
         style="fill-rule:evenodd;stroke:#000000;stroke-width:1.0pt"
         d="M 0.0,0.0 L 5.0,-5.0 L -12.5,0.0 L 5.0,5.0 L 0.0,0.0 z "
         id="path954" />
    </marker>
    <inkscape:path-effect
       effect="mirror_symmetry"
       start_point="113,22.751669"
       end_point="122,281.02716"
       center_point="117.5,151.88941"
       id="path-effect894"
       is_visible="true"
       lpeversion="1"
       mode="free"
       discard_orig_path="false"
       fuse_paths="false"
       oposite_fuse="false"
       split_items="false" />
    <inkscape:path-effect
       effect="mirror_symmetry"
       start_point="181.15922,-11.80605"
       end_point="181.15922,285.19395"
       center_point="181.15922,136.69395"
       id="path-effect874"
       is_visible="true"
       lpeversion="1"
       mode="free"
       discard_orig_path="false"
       fuse_paths="false"
       oposite_fuse="false"
       split_items="true" />
    <inkscape:path-effect
       effect="mirror_symmetry"
       start_point="127.7,0"
       end_point="127.7,297"
       center_point="127.7,148.5"
       id="path-effect857"
       is_visible="true"
       lpeversion="1"
       mode="free"
       discard_orig_path="false"
       fuse_paths="false"
       oposite_fuse="false"
       split_items="true" />
    <meshgradient
       inkscape:collect="always"
       id="meshgradient2648"
       gradientUnits="userSpaceOnUse"
       x="73.907326"
       y="33.671783">
      <meshrow
         id="meshrow6196">
        <meshpatch
           id="meshpatch6198">
          <stop
             path="c 15.9213,5.7546e-06  24.025,-7.60721  39.9465,-7.60717"
             style="stop-color:#550000;stop-opacity:1"
             id="stop6200" />
          <stop
             path="c 0.000515069,42.3583  18.9038,80.2382  18.9037,122.599"
             style="stop-color:#dd0000;stop-opacity:1"
             id="stop6202" />
          <stop
             path="c -15.9213,-0.000546949  -38.8676,7.91165  -54.789,7.90825"
             style="stop-color:#d40000;stop-opacity:1"
             id="stop6204" />
          <stop
             path="c 3.83023e-05,-42.3549  -4.06119,-80.5401  -4.0612,-122.9"
             style="stop-color:#2b0000;stop-opacity:1"
             id="stop6206" />
        </meshpatch>
      </meshrow>
    </meshgradient>
  </defs>
  <sodipodi:namedview
     id="base"
     pagecolor="#ffffff"
     bordercolor="#666666"
     borderopacity="1.0"
     inkscape:pageopacity="0.0"
     inkscape:pageshadow="2"
     inkscape:zoom="2.8284271"
     inkscape:cx="203.27334"
     inkscape:cy="700.15472"
     inkscape:document-units="mm"
     inkscape:current-layer="layer1"
     inkscape:document-rotation="0"
     showgrid="false"
     inkscape:lockguides="false"
     showguides="false"
     inkscape:object-nodes="true"
     inkscape:snap-others="false"
     inkscape:window-width="1366"
     inkscape:window-height="703"
     inkscape:window-x="0"
     inkscape:window-y="0"
     inkscape:window-maximized="1"
     fit-margin-top="0"
     fit-margin-left="0"
     fit-margin-right="0"
     fit-margin-bottom="0"
     inkscape:snap-nodes="false" />
  <metadata
     id="metadata5">
    <rdf:RDF>
      <cc:Work
         rdf:about="">
        <dc:format>image/svg+xml</dc:format>
        <dc:type
           rdf:resource="http://purl.org/dc/dcmitype/StillImage" />
        <dc:title></dc:title>
      </cc:Work>
    </rdf:RDF>
  </metadata>
  <g
     inkscape:label="Layer 1"
     inkscape:groupmode="layer"
     id="layer1"
     transform="translate(-51.937713,-8.483553)">
    <rect
       style="opacity:0;fill:#008000;fill-opacity:1;stroke:#000000;stroke-width:0.997376;stroke-linecap:round;stroke-linejoin:bevel;stroke-miterlimit:4;stroke-dasharray:none;stroke-opacity:1"
       id="rect1377"
       width="92.039268"
       height="18.949091"
       x="63.607967"
       y="132.17612" />
    <rect
       style="opacity:1;fill:#ffffff;fill-opacity:1;stroke:#000000;stroke-width:0.791289;stroke-linecap:round;stroke-linejoin:bevel;stroke-miterlimit:4;stroke-dasharray:none;stroke-opacity:1"
       id="rect896"
       width="5.6443477"
       height="418.70605"
       x="102.8173"
       y="123.5547" />
    <path
       id="path867"
       d="m 94.509333,132.79784 c -0.562401,1.11363 -1.08973,2.13503 -1.840987,3.05745 -0.606361,0.74451 -1.247812,1.5443 -2.115893,1.95467 -0.888857,0.42019 -1.96938,0.64821 -2.921726,0.40395 -1.245999,-0.31958 -2.38408,-1.23153 -3.096346,-2.30314 -2.08502,-3.68262 -0.909848,-7.71012 -0.05249,-11.09605 0.857362,-3.38594 0.942883,-4.18819 2.070282,-6.91945 0.449143,-1.0881 0.833846,-2.05457 1.340362,-3.11717 1.072515,-2.3133 2.347916,-4.75172 3.12258,-5.92376 1.146711,-1.69797 2.339275,-3.37054 3.646332,-4.94842 0.919493,-1.11 1.982448,-2.2986 2.94293,-3.16817 0.742003,-0.67176 0.670824,-0.59588 1.399948,-1.317031 -0.288297,-2.232291 -0.431439,-6.400661 -0.587842,-9.604249 -0.129682,-2.656357 -0.202205,-5.315217 -0.290613,-7.973267 -0.05681,-1.707963 -0.141411,-3.415538 -0.154106,-5.124402 -0.01512,-2.036143 0.02812,-4.072726 0.09279,-6.107904 0.06517,-2.051639 0.172892,-4.101942 0.297412,-6.150838 0.119021,-1.958455 0.207909,-3.921012 0.429802,-5.870491 0.205484,-1.805306 0.529473,-3.595441 0.833887,-5.386717 0.329156,-1.936863 0.673545,-3.871802 1.073035,-5.79539 0.33536,-1.614793 0.69071,-3.226596 1.1109,-4.82142 0.50456,-1.915033 1.1158,-3.800419 1.69195,-5.695149 0.59762,-1.965403 1.32687,-4.033386 2.07672,-6.03091 0.0196,-6.861221 0.17403,-9.041982 0.17403,-9.041982 0,0 0.003,2.253894 0.11526,9.036422 0.77576,2.017827 1.46894,4.007986 2.12759,6.037637 0.61128,1.883685 1.18739,3.780116 1.69195,5.695148 0.42019,1.594824 0.77554,3.206627 1.1109,4.821421 0.39949,1.923587 0.74388,3.858531 1.07304,5.795389 0.30441,1.791276 0.62841,3.581412 0.83389,5.386718 0.2219,1.949484 0.31078,3.91204 0.4298,5.870495 0.12452,2.048896 0.23224,4.0992 0.29741,6.150838 0.0647,2.035179 0.10791,4.071761 0.0928,6.107906 -0.0127,1.708859 -0.0973,3.416433 -0.1541,5.124396 -0.0884,2.65805 -0.16094,5.31691 -0.29061,7.973267 -0.1564,3.203595 -0.29955,7.371965 -0.58784,9.604256 0.72911,0.721147 1.82075,2.061727 2.47631,2.628117 0.84857,0.73316 1.78567,1.7327 2.60005,2.67117 1.15157,1.32706 2.20664,2.73783 3.2215,4.17214 1.08013,1.52655 2.09719,3.09968 3.04644,4.71087 0.96364,1.63563 1.83533,3.32492 2.6842,5.02295 0.46993,0.94002 0.95602,1.87619 1.33257,2.85736 0.65281,1.70101 1.13468,3.46508 1.59704,5.22742 0.44559,1.69841 0.79239,3.42187 1.13232,5.14454 0.15158,0.76819 0.32498,1.53496 0.40435,2.31393 0.16142,1.58405 0.13383,3.93252 0.14375,4.77462 0.0132,1.12518 -0.98618,2.60482 -1.34434,3.00386 -0.3722,0.41471 -1.70231,1.48798 -3.66211,1.55088 -2.31225,-0.22515 -3.91317,-0.97056 -4.95779,-2.94276 -0.40106,-0.87734 -0.28923,-1.89583 -0.35765,-2.85124 -0.0459,-0.64092 -0.0239,-1.2849 -0.0351,-1.92737 -0.0219,-1.25792 0.38204,-2.59701 -0.0629,-3.77381 -0.55032,-1.45551 -1.03086,-2.04877 -3.02978,-3.55145 -1.47115,-1.10593 -2.24837,-1.29339 -2.9279,-1.75894 -0.52822,-0.36188 -2.88465,-0.92006 -3.62008,-1.07332 -0.73543,-0.15328 -1.47092,5.11554 -2.23361,6.63016 -1.82273,0.21644 -3.0209,0.15126 -4.01186,0.13297 l -1.48515,0.0127 c -0.91167,-0.15511 -0.57491,0.41496 -0.38126,3.49063 0.22248,1.55133 0.4482,2.76254 0.52005,4.50737 0.0486,1.18029 0.13543,2.44981 -0.1113,3.63753 -0.21452,1.03264 -0.52324,2.10698 -1.17083,2.93944 -0.60031,0.7717 -1.4611,1.3727 -2.37416,1.72229 -1.039888,0.33012 -1.442787,0.18492 -2.52704,0.0251 l -7e-5,2e-5 c -0.855511,-0.12609 -1.72175,-0.42711 -2.370312,-1.24162 -0.656967,-0.82508 -0.956313,-1.90681 -1.170827,-2.93944 -0.24673,-1.18772 -0.1599,-2.88701 -0.1113,-4.22322 0.07184,-1.97537 0.312454,-3.53193 0.534933,-5.28821 0.21495,-1.6969 0.416278,-3.14949 0.772357,-5.06788 0.468593,-2.52453 0.692485,-4.18776 1.097314,-5.53661 l 0.343996,-0.6647 c 0,0 0.622832,-4.52287 2.531958,-11.13254 1.027751,-3.55821 2.325471,-6.99076 3.808461,-10.25343 0.35026,-0.77059 1.19451,-2.18524 1.19451,-2.18524"
       style="fill:url(#meshgradient2648);fill-opacity:1;stroke:#000000;stroke-width:0.495918;stroke-linecap:butt;stroke-linejoin:miter;stroke-miterlimit:4;stroke-dasharray:none;stroke-opacity:1"
       sodipodi:nodetypes="caaaczsccsscssscsssssscccaaaaaaaaaacsaaaaaaaassccaaascsccccsaacccsssssccsac" />
    <path
       id="path1354"
       style="opacity:1;fill:#ffffff;fill-opacity:1;stroke:#000000;stroke-width:0.183674;stroke-linecap:round;stroke-linejoin:bevel;stroke-miterlimit:4;stroke-dasharray:none;stroke-opacity:1"
       d="m 109.97193,51.495046 c 0.17131,1.643544 0.8099,3.412655 0.21122,4.952843 -0.16615,0.427473 -0.56986,0.752971 -0.97161,0.974188 -0.17152,0.09444 -0.37748,0.131329 -0.57326,0.128151 -0.26258,-0.0043 -0.54008,-0.05771 -0.76288,-0.19674 -0.24853,-0.155085 -0.40502,-0.426662 -0.57114,-0.667958 -0.2942,-0.42734 -0.6467,-0.857484 -0.74406,-1.367085 -0.18141,-0.949554 0.26524,-2.180328 0.34974,-2.879019 0.21997,-1.818909 0.16695,-2.82029 0.14651,-4.23148 -0.0169,-1.165732 -0.14991,-2.326886 -0.22217,-3.4905 -0.1053,-1.69594 -0.86155,-5.014945 -0.30802,-5.088304 0.73487,-0.09739 1.05368,1.139864 1.37319,1.833318 0.9935,2.156245 1.10376,4.619578 1.55883,6.949674 0.19969,1.022486 0.40564,2.046723 0.51365,3.082912 z"
       sodipodi:nodetypes="aaaaaaasaasaaa" />
    <path
       style="fill:none;stroke:#000000;stroke-width:0.237309px;stroke-linecap:butt;stroke-linejoin:miter;stroke-opacity:1"
       d="m 97.039299,125.00949 c 0,0 2.043105,-9.35848 3.555631,-13.89321 1.22914,-3.68511 4.46661,-10.76415 4.46661,-10.76415 l -1.34306,25.1157 c 0,0 -0.66926,2.08963 -0.95393,3.14873 -0.32342,1.20331 -0.85576,3.63879 -0.85576,3.63879 z"
       id="path1359"
       sodipodi:nodetypes="caccacc" />
    <path
       style="fill:none;stroke:#000000;stroke-width:0.264583px;stroke-linecap:butt;stroke-linejoin:miter;stroke-opacity:1"
       d="m 93.696061,144.48966 c 0,0 2.087102,1.05386 4.226658,1.02904 3.492911,-0.0405 5.681801,-1.20118 5.681801,-1.20118"
       id="path1361"
       sodipodi:nodetypes="csc" />
    <path
       style="fill:none;stroke:#000000;stroke-width:0.283638px;stroke-linecap:butt;stroke-linejoin:miter;stroke-opacity:1"
       d="m 112.47886,99.580273 c 0,0 -0.41779,10.792937 -0.95275,16.168067 -0.38186,3.83667 -1.04283,7.64628 -1.60947,11.46403 -0.21892,1.475 -0.69167,4.42061 -0.69167,4.42061"
       id="path1363"
       sodipodi:nodetypes="caac" />
    <path
       style="fill:none;stroke:#000000;stroke-width:0.235822px;stroke-linecap:butt;stroke-linejoin:miter;stroke-opacity:1"
       d="m 99.012689,98.661516 c 0.830754,7.903354 1.131071,10.289294 1.131071,10.289294"
       id="path1367"
       sodipodi:nodetypes="cc" />
    <path
       style="fill:none;stroke:#000000;stroke-width:0.275217px;stroke-linecap:butt;stroke-linejoin:miter;stroke-opacity:1"
       d="m 120.8465,138.58277 c 2.16348,1.32143 5.80262,1.46389 7.86515,1.16338 2.25545,-0.32863 2.41332,-1.81878 2.41332,-1.81878"
       id="path1369"
       sodipodi:nodetypes="csc" />
    <path
       style="fill:none;stroke:#000000;stroke-width:0.264583px;stroke-linecap:butt;stroke-linejoin:miter;stroke-opacity:1"
       d="m 125.18667,120.24934 c 0,0 -2.52125,6.09786 -3.35533,9.27952 -0.62371,2.37918 -1.21786,7.27752 -1.21786,7.27752"
       id="path1371"
       sodipodi:nodetypes="cac" />
    <path
       style="fill:none;stroke:#000000;stroke-width:0.264583px;stroke-linecap:butt;stroke-linejoin:miter;stroke-opacity:1"
       d="m 88.331538,114.33012 c 0,0 2.518374,5.31692 3.668406,9.01133 1.322729,4.24918 2.666447,9.26848 2.392083,9.44402 -2.898389,1.85439 -5.341716,1.39413 -7.055974,0.97732 -1.943545,-0.47257 -3.982498,-1.84975 -3.982498,-1.84975"
       id="path1379"
       sodipodi:nodetypes="csssc" />
    <path
       style="opacity:0;fill:#000000;fill-opacity:1;stroke:#000000;stroke-width:0.11811;stroke-linecap:round;stroke-linejoin:bevel;stroke-miterlimit:4;stroke-dasharray:none;stroke-opacity:1"
       d="m 196.29725,106.09229 c 0,-0.0476 1.09937,-3.45703 2.21813,-6.879117 2.18069,-6.670287 2.98286,-9.267603 3.90301,-12.637471 l 0.37886,-1.387472 V 69.466327 53.744424 h 0.59375 0.59375 v 15.760448 15.760447 l 0.19257,0.723928 c 0.87641,3.294708 2.02432,7.017754 4.30854,13.973926 0.33863,1.031247 0.88596,2.718747 1.21629,3.749997 0.33033,1.03125 0.63984,1.99453 0.6878,2.14063 l 0.0872,0.26562 h -7.08996 c -3.89947,0 -7.08995,-0.0122 -7.08995,-0.0271 z"
       id="path1381"
       transform="matrix(0.26458333,0,0,0.26458333,51.937713,8.483553)" />
    <path
       style="opacity:0;fill:#000000;fill-opacity:1;stroke:#000000;stroke-width:0.11811;stroke-linecap:round;stroke-linejoin:bevel;stroke-miterlimit:4;stroke-dasharray:none;stroke-opacity:1"
       d="m 196.29725,106.09229 c 0,-0.0476 1.09937,-3.45703 2.21813,-6.879117 2.18069,-6.670287 2.98286,-9.267603 3.90301,-12.637471 l 0.37886,-1.387472 V 69.466327 53.744424 h 0.59375 0.59375 v 15.760448 15.760447 l 0.19257,0.723928 c 0.87641,3.294708 2.02432,7.017754 4.30854,13.973926 0.33863,1.031247 0.88596,2.718747 1.21629,3.749997 0.33033,1.03125 0.63984,1.99453 0.6878,2.14063 l 0.0872,0.26562 h -7.08996 c -3.89947,0 -7.08995,-0.0122 -7.08995,-0.0271 z"
       id="path1383"
       transform="matrix(0.26458333,0,0,0.26458333,51.937713,8.483553)" />
    <path
       style="opacity:0;fill:#000000;fill-opacity:1;stroke:#000000;stroke-width:0.11811;stroke-linecap:round;stroke-linejoin:bevel;stroke-miterlimit:4;stroke-dasharray:none;stroke-opacity:1"
       d="m 196.29725,106.09229 c 0,-0.0476 1.09937,-3.45703 2.21813,-6.879117 2.18069,-6.670287 2.98286,-9.267603 3.90301,-12.637471 l 0.37886,-1.387472 V 69.466327 53.744424 h 0.59375 0.59375 v 15.760448 15.760447 l 0.19257,0.723928 c 0.87641,3.294708 2.02432,7.017754 4.30854,13.973926 0.33863,1.031247 0.88596,2.718747 1.21629,3.749997 0.33033,1.03125 0.63984,1.99453 0.6878,2.14063 l 0.0872,0.26562 h -7.08996 c -3.89947,0 -7.08995,-0.0122 -7.08995,-0.0271 z"
       id="path1385"
       transform="matrix(0.26458333,0,0,0.26458333,51.937713,8.483553)" />
    <path
       style="opacity:0;fill:#000000;fill-opacity:1;stroke:#000000;stroke-width:0.0295276;stroke-linecap:round;stroke-linejoin:bevel;stroke-miterlimit:4;stroke-dasharray:none;stroke-opacity:1"
       d="m 201.30687,90.381403 c 0,-0.0047 0.0663,-0.231452 0.14725,-0.503906 0.42071,-1.415398 0.86772,-3.003525 1.19526,-4.246498 l 0.095,-0.360501 1e-5,-2.522311 c 0,-1.387272 0.005,-3.181492 0.0104,-3.987156 l 0.0104,-1.464844 h 0.62242 0.62242 v 3.98599 3.985989 l 0.16512,0.619479 c 0.31509,1.18217 0.71791,2.610745 1.09369,3.878637 0.0983,0.331605 0.17869,0.607584 0.17869,0.613287 0,0.0057 -0.93164,0.01037 -2.07031,0.01037 -1.13867,0 -2.07031,-0.0038 -2.07031,-0.0085 z"
       id="path1387"
       transform="matrix(0.26458333,0,0,0.26458333,51.937713,8.483553)" />
    <path
       style="opacity:0;fill:#000000;fill-opacity:1;stroke:#000000;stroke-width:0.0835166;stroke-linecap:round;stroke-linejoin:bevel;stroke-miterlimit:4;stroke-dasharray:none;stroke-opacity:1"
       d="m 194.82363,110.85253 c 0.022,-0.0669 0.39038,-1.26506 0.81853,-2.6627 0.86834,-2.83454 1.45426,-4.67153 2.8051,-8.794642 2.1738,-6.634992 3.19369,-9.949149 4.08432,-13.272092 l 0.24654,-0.91982 V 79.57131 73.939344 h 0.59662 0.59662 l 3e-5,5.623709 3e-5,5.623708 0.30523,1.126952 c 0.94788,3.499646 1.71793,5.998239 4.00441,12.993087 1.499,4.58576 1.91852,5.90032 2.83424,8.88114 0.45145,1.46952 0.83068,2.69757 0.84274,2.72899 0.0177,0.0462 -0.38317,0.0571 -2.09969,0.0571 h -2.12162 l -0.22656,-0.2479 -0.22657,-0.2479 -0.43409,0.0553 -0.4341,0.0553 -0.1052,0.19258 -0.1052,0.19258 h -5.71072 -5.71072 z"
       id="path1389"
       transform="matrix(0.26458333,0,0,0.26458333,51.937713,8.483553)" />
    <path
       style="opacity:0;fill:#000000;fill-opacity:1;stroke:#000000;stroke-width:0.0835166;stroke-linecap:round;stroke-linejoin:bevel;stroke-miterlimit:4;stroke-dasharray:none;stroke-opacity:1"
       d="m 199.30539,96.758766 c 0.081,-0.210987 1.18923,-3.688563 1.59637,-5.00917 0.51514,-1.670913 1.24437,-4.188375 1.62982,-5.6265 l 0.24654,-0.91982 V 72.500242 59.797208 h 0.59662 0.59662 l 3e-5,12.694777 3e-5,12.694776 0.30523,1.126952 c 0.49357,1.822288 0.96817,3.453832 1.64554,5.656854 0.23248,0.756111 1.4745,4.659292 1.52933,4.806116 0.0164,0.04395 -0.81731,0.05524 -4.07678,0.05524 -3.79496,0 -4.09535,-0.0054 -4.06935,-0.07316 z"
       id="path1391"
       transform="matrix(0.26458333,0,0,0.26458333,51.937713,8.483553)" />
    <path
       style="opacity:0;fill:#000000;fill-opacity:1;stroke:#000000;stroke-width:0.0835166;stroke-linecap:round;stroke-linejoin:bevel;stroke-miterlimit:4;stroke-dasharray:none;stroke-opacity:1"
       d="m 199.30539,96.758766 c 0.081,-0.210987 1.18923,-3.688563 1.59637,-5.00917 0.51514,-1.670913 1.24437,-4.188375 1.62982,-5.6265 l 0.24654,-0.91982 V 72.500242 59.797208 h 0.59662 0.59662 l 3e-5,12.694777 3e-5,12.694776 0.30523,1.126952 c 0.49357,1.822288 0.96817,3.453832 1.64554,5.656854 0.23248,0.756111 1.4745,4.659292 1.52933,4.806116 0.0164,0.04395 -0.81731,0.05524 -4.07678,0.05524 -3.79496,0 -4.09535,-0.0054 -4.06935,-0.07316 z"
       id="path1393"
       transform="matrix(0.26458333,0,0,0.26458333,51.937713,8.483553)" />
    <path
       style="opacity:0;fill:#000000;fill-opacity:1;stroke:#000000;stroke-width:0.0835166;stroke-linecap:round;stroke-linejoin:bevel;stroke-miterlimit:4;stroke-dasharray:none;stroke-opacity:1"
       d="m 199.30539,96.758766 c 0.081,-0.210987 1.18923,-3.688563 1.59637,-5.00917 0.51514,-1.670913 1.24437,-4.188375 1.62982,-5.6265 l 0.24654,-0.91982 V 72.500242 59.797208 h 0.59662 0.59662 l 3e-5,12.694777 3e-5,12.694776 0.30523,1.126952 c 0.49357,1.822288 0.96817,3.453832 1.64554,5.656854 0.23248,0.756111 1.4745,4.659292 1.52933,4.806116 0.0164,0.04395 -0.81731,0.05524 -4.07678,0.05524 -3.79496,0 -4.09535,-0.0054 -4.06935,-0.07316 z"
       id="path1395"
       transform="matrix(0.26458333,0,0,0.26458333,51.937713,8.483553)" />
    <path
       style="opacity:0;fill:#000000;fill-opacity:1;stroke:#000000;stroke-width:0.0835166;stroke-linecap:round;stroke-linejoin:bevel;stroke-miterlimit:4;stroke-dasharray:none;stroke-opacity:1"
       d="m 199.30539,96.758766 c 0.081,-0.210987 1.18923,-3.688563 1.59637,-5.00917 0.51514,-1.670913 1.24437,-4.188375 1.62982,-5.6265 l 0.24654,-0.91982 V 72.500242 59.797208 h 0.59662 0.59662 l 3e-5,12.694777 3e-5,12.694776 0.30523,1.126952 c 0.49357,1.822288 0.96817,3.453832 1.64554,5.656854 0.23248,0.756111 1.4745,4.659292 1.52933,4.806116 0.0164,0.04395 -0.81731,0.05524 -4.07678,0.05524 -3.79496,0 -4.09535,-0.0054 -4.06935,-0.07316 z"
       id="path1397"
       transform="matrix(0.26458333,0,0,0.26458333,51.937713,8.483553)" />
    <path
       style="opacity:0;fill:#000000;fill-opacity:1;stroke:#000000;stroke-width:0.0835166;stroke-linecap:round;stroke-linejoin:bevel;stroke-miterlimit:4;stroke-dasharray:none;stroke-opacity:1"
       d="m 199.30539,96.758766 c 0.081,-0.210987 1.18923,-3.688563 1.59637,-5.00917 0.51514,-1.670913 1.24437,-4.188375 1.62982,-5.6265 l 0.24654,-0.91982 V 72.500242 59.797208 h 0.59662 0.59662 l 3e-5,12.694777 3e-5,12.694776 0.30523,1.126952 c 0.49357,1.822288 0.96817,3.453832 1.64554,5.656854 0.23248,0.756111 1.4745,4.659292 1.52933,4.806116 0.0164,0.04395 -0.81731,0.05524 -4.07678,0.05524 -3.79496,0 -4.09535,-0.0054 -4.06935,-0.07316 z"
       id="path1399"
       transform="matrix(0.26458333,0,0,0.26458333,51.937713,8.483553)" />
    <path
       style="opacity:0;fill:#000000;fill-opacity:1;stroke:#000000;stroke-width:0.334066;stroke-linecap:round;stroke-linejoin:bevel;stroke-miterlimit:4;stroke-dasharray:none;stroke-opacity:1"
       d="m 178.13291,189.18167 c 0.0437,-0.26737 0.20582,-1.4805 0.36023,-2.69584 0.87433,-6.88191 4.44923,-27.57099 6.53674,-37.83022 1.97106,-9.68692 3.98198,-18.06312 6.02576,-25.09933 1.67686,-5.773 5.76816,-18.98657 7.93751,-25.635577 1.03097,-3.159883 2.30776,-7.249595 2.83732,-9.088247 l 0.96284,-3.343005 V 69.27911 c 0,-8.915688 0.0506,-16.579417 0.11242,-17.03051 0.0977,-0.712718 0.16716,-0.820168 0.53033,-0.820168 h 0.41791 l 8.8e-4,16.83798 8.9e-4,16.837981 1.0476,3.623922 c 0.57618,1.993157 2.04129,6.686578 3.25581,10.429825 7.55407,23.28224 10.44139,33.92209 13.89516,51.20409 2.40322,12.02581 6.5484,36.59731 6.5484,38.81781 v 0.48777 h -3.86815 -3.86814 l -0.11375,-8.44109 c -0.20763,-15.40817 -0.50378,-21.83425 -1.26477,-27.44458 -0.51335,-3.7846 -2.8862,-17.95023 -3.61003,-21.55142 -1.33252,-6.62955 -2.75096,-11.52421 -4.43017,-15.28741 -1.63499,-3.66408 -3.62013,-6.47146 -4.57606,-6.47146 -0.43407,0 -0.55283,0.13719 -1.03297,1.19324 -2.14758,4.72355 -2.76416,11.50583 -2.3584,25.94198 0.11205,3.98632 0.28118,12.25946 0.37585,18.38478 0.20661,13.36738 0.64403,27.58766 0.99102,32.21755 l 0.10931,1.45841 h -13.45152 -13.45152 z"
       id="path1401"
       transform="matrix(0.26458333,0,0,0.26458333,51.937713,8.483553)" />
    <path
       style="opacity:0;fill:#000000;fill-opacity:1;stroke:#000000;stroke-width:0.334066;stroke-linecap:round;stroke-linejoin:bevel;stroke-miterlimit:4;stroke-dasharray:none;stroke-opacity:1"
       d="m 178.13291,189.18167 c 0.0437,-0.26737 0.20582,-1.4805 0.36023,-2.69584 0.87433,-6.88191 4.44923,-27.57099 6.53674,-37.83022 1.97106,-9.68692 3.98198,-18.06312 6.02576,-25.09933 1.67686,-5.773 5.76816,-18.98657 7.93751,-25.635577 1.03097,-3.159883 2.30776,-7.249595 2.83732,-9.088247 l 0.96284,-3.343005 V 69.27911 c 0,-8.915688 0.0506,-16.579417 0.11242,-17.03051 0.0977,-0.712718 0.16716,-0.820168 0.53033,-0.820168 h 0.41791 l 8.8e-4,16.83798 8.9e-4,16.837981 1.0476,3.623922 c 0.57618,1.993157 2.04129,6.686578 3.25581,10.429825 7.55407,23.28224 10.44139,33.92209 13.89516,51.20409 2.40322,12.02581 6.5484,36.59731 6.5484,38.81781 v 0.48777 h -3.86815 -3.86814 l -0.11375,-8.44109 c -0.20763,-15.40817 -0.50378,-21.83425 -1.26477,-27.44458 -0.51335,-3.7846 -2.8862,-17.95023 -3.61003,-21.55142 -1.33252,-6.62955 -2.75096,-11.52421 -4.43017,-15.28741 -1.63499,-3.66408 -3.62013,-6.47146 -4.57606,-6.47146 -0.43407,0 -0.55283,0.13719 -1.03297,1.19324 -2.14758,4.72355 -2.76416,11.50583 -2.3584,25.94198 0.11205,3.98632 0.28118,12.25946 0.37585,18.38478 0.20661,13.36738 0.64403,27.58766 0.99102,32.21755 l 0.10931,1.45841 h -13.45152 -13.45152 z"
       id="path1403"
       transform="matrix(0.26458333,0,0,0.26458333,51.937713,8.483553)" />
    <path
       style="fill:none;stroke:#000000;stroke-width:0.264583px;stroke-linecap:butt;stroke-linejoin:miter;stroke-opacity:1"
       d="m 107.04839,144.31695 c 0,13.74223 0,13.74223 0,13.74223"
       id="path5902" />
    <path
       style="fill:none;stroke:#000000;stroke-width:0.25;stroke-linecap:butt;stroke-linejoin:miter;stroke-miterlimit:4;stroke-dasharray:none;stroke-opacity:1"
       d="m 105.89133,153.11866 c 0,8.9435 0,8.9435 0,8.9435"
       id="path5902-6" />
    <path
       style="fill:none;stroke:#000000;stroke-width:0.3;stroke-linecap:butt;stroke-linejoin:miter;stroke-miterlimit:4;stroke-dasharray:none;stroke-opacity:1"
       d="m 104.29448,151.15927 c 0,3.34393 0,3.34393 0,3.34393"
       id="path5902-6-9" />
    <path
       style="fill:none;stroke:#000000;stroke-width:0.28;stroke-linecap:butt;stroke-linejoin:miter;stroke-miterlimit:4;stroke-dasharray:none;stroke-opacity:1"
       d="m 104.39593,178.45098 c 0,-13.12752 0,-13.12752 0,-13.12752"
       id="path5902-8" />
    <path
       style="fill:none;stroke:#000000;stroke-width:0.27;stroke-linecap:butt;stroke-linejoin:miter;stroke-miterlimit:4;stroke-dasharray:none;stroke-opacity:1"
       d="m 107.02665,171.91473 c 0,-3.19435 0,-3.19435 0,-3.19435"
       id="path5902-6-9-3" />
    <path
       style="fill:none;stroke:#000000;stroke-width:0.238817;stroke-linecap:butt;stroke-linejoin:miter;stroke-miterlimit:4;stroke-dasharray:none;stroke-opacity:1"
       d="m 104.60317,137.48811 c 0,-3.19435 0,-3.19435 0,-3.19435"
       id="path5902-6-9-3-3" />
    <path
       style="fill:none;stroke:#000000;stroke-width:0.27;stroke-linecap:butt;stroke-linejoin:miter;stroke-miterlimit:4;stroke-dasharray:none;stroke-opacity:1"
       d="m 105.72563,133.17543 c 0,8.9435 0,8.9435 0,8.9435"
       id="path5902-6-3" />
    <path
       style="fill:none;stroke:#000000;stroke-width:0.264583px;stroke-linecap:butt;stroke-linejoin:miter;stroke-opacity:1"
       d="m 106.74466,186.63383 c 0,13.74223 0,13.74223 0,13.74223"
       id="path5902-7" />
    <path
       style="fill:none;stroke:#000000;stroke-width:0.25;stroke-linecap:butt;stroke-linejoin:miter;stroke-miterlimit:4;stroke-dasharray:none;stroke-opacity:1"
       d="m 105.5876,195.43554 c 0,8.9435 0,8.9435 0,8.9435"
       id="path5902-6-98" />
    <path
       style="fill:none;stroke:#000000;stroke-width:0.3;stroke-linecap:butt;stroke-linejoin:miter;stroke-miterlimit:4;stroke-dasharray:none;stroke-opacity:1"
       d="m 103.99075,193.47615 c 0,3.34393 0,3.34393 0,3.34393"
       id="path5902-6-9-6" />
    <path
       style="fill:none;stroke:#000000;stroke-width:0.28;stroke-linecap:butt;stroke-linejoin:miter;stroke-miterlimit:4;stroke-dasharray:none;stroke-opacity:1"
       d="m 104.0922,220.76786 c 0,-13.12752 0,-13.12752 0,-13.12752"
       id="path5902-8-7" />
    <path
       style="fill:none;stroke:#000000;stroke-width:0.27;stroke-linecap:butt;stroke-linejoin:miter;stroke-miterlimit:4;stroke-dasharray:none;stroke-opacity:1"
       d="m 106.72292,214.23161 c 0,-3.19435 0,-3.19435 0,-3.19435"
       id="path5902-6-9-3-0" />
    <path
       style="fill:none;stroke:#000000;stroke-width:0.27;stroke-linecap:butt;stroke-linejoin:miter;stroke-miterlimit:4;stroke-dasharray:none;stroke-opacity:1"
       d="m 105.25798,180.99768 c 0,8.9435 0,8.9435 0,8.9435"
       id="path5902-6-3-4" />
  </g>
  <script
     id="mesh_polyfill"
     type="text/javascript">
!function(){const t=&quot;http://www.w3.org/2000/svg&quot;,e=&quot;http://www.w3.org/1999/xlink&quot;,s=&quot;http://www.w3.org/1999/xhtml&quot;,r=2;if(document.createElementNS(t,&quot;meshgradient&quot;).x)return;const n=(t,e,s,r)=&gt;{let n=new x(.5*(e.x+s.x),.5*(e.y+s.y)),o=new x(.5*(t.x+e.x),.5*(t.y+e.y)),i=new x(.5*(s.x+r.x),.5*(s.y+r.y)),a=new x(.5*(n.x+o.x),.5*(n.y+o.y)),h=new x(.5*(n.x+i.x),.5*(n.y+i.y)),l=new x(.5*(a.x+h.x),.5*(a.y+h.y));return[[t,o,a,l],[l,h,i,r]]},o=t=&gt;{let e=t[0].distSquared(t[1]),s=t[2].distSquared(t[3]),r=.25*t[0].distSquared(t[2]),n=.25*t[1].distSquared(t[3]),o=e&gt;s?e:s,i=r&gt;n?r:n;return 18*(o&gt;i?o:i)},i=(t,e)=&gt;Math.sqrt(t.distSquared(e)),a=(t,e)=&gt;t.scale(2/3).add(e.scale(1/3)),h=t=&gt;{let e,s,r,n,o,i,a,h=new g;return t.match(/(\w+\(\s*[^)]+\))+/g).forEach(t=&gt;{let l=t.match(/[\w.-]+/g),d=l.shift();switch(d){case&quot;translate&quot;:2===l.length?e=new g(1,0,0,1,l[0],l[1]):(console.error(&quot;mesh.js: translate does not have 2 arguments!&quot;),e=new g(1,0,0,1,0,0)),h=h.append(e);break;case&quot;scale&quot;:1===l.length?s=new g(l[0],0,0,l[0],0,0):2===l.length?s=new g(l[0],0,0,l[1],0,0):(console.error(&quot;mesh.js: scale does not have 1 or 2 arguments!&quot;),s=new g(1,0,0,1,0,0)),h=h.append(s);break;case&quot;rotate&quot;:if(3===l.length&amp;&amp;(e=new g(1,0,0,1,l[1],l[2]),h=h.append(e)),l[0]){r=l[0]*Math.PI/180;let t=Math.cos(r),e=Math.sin(r);Math.abs(t)&lt;1e-16&amp;&amp;(t=0),Math.abs(e)&lt;1e-16&amp;&amp;(e=0),a=new g(t,e,-e,t,0,0),h=h.append(a)}else console.error(&quot;math.js: No argument to rotate transform!&quot;);3===l.length&amp;&amp;(e=new g(1,0,0,1,-l[1],-l[2]),h=h.append(e));break;case&quot;skewX&quot;:l[0]?(r=l[0]*Math.PI/180,n=Math.tan(r),o=new g(1,0,n,1,0,0),h=h.append(o)):console.error(&quot;math.js: No argument to skewX transform!&quot;);break;case&quot;skewY&quot;:l[0]?(r=l[0]*Math.PI/180,n=Math.tan(r),i=new g(1,n,0,1,0,0),h=h.append(i)):console.error(&quot;math.js: No argument to skewY transform!&quot;);break;case&quot;matrix&quot;:6===l.length?h=h.append(new g(...l)):console.error(&quot;math.js: Incorrect number of arguments for matrix!&quot;);break;default:console.error(&quot;mesh.js: Unhandled transform type: &quot;+d)}}),h},l=t=&gt;{let e=[],s=t.split(/[ ,]+/);for(let t=0,r=s.length-1;t&lt;r;t+=2)e.push(new x(parseFloat(s[t]),parseFloat(s[t+1])));return e},d=(t,e)=&gt;{for(let s in e)t.setAttribute(s,e[s])},c=(t,e,s,r,n)=&gt;{let o,i,a=[0,0,0,0];for(let h=0;h&lt;3;++h)e[h]&lt;t[h]&amp;&amp;e[h]&lt;s[h]||t[h]&lt;e[h]&amp;&amp;s[h]&lt;e[h]?a[h]=0:(a[h]=.5*((e[h]-t[h])/r+(s[h]-e[h])/n),o=Math.abs(3*(e[h]-t[h])/r),i=Math.abs(3*(s[h]-e[h])/n),a[h]&gt;o?a[h]=o:a[h]&gt;i&amp;&amp;(a[h]=i));return a},u=[[1,0,0,0,0,0,0,0,0,0,0,0,0,0,0,0],[0,0,0,0,1,0,0,0,0,0,0,0,0,0,0,0],[-3,3,0,0,-2,-1,0,0,0,0,0,0,0,0,0,0],[2,-2,0,0,1,1,0,0,0,0,0,0,0,0,0,0],[0,0,0,0,0,0,0,0,1,0,0,0,0,0,0,0],[0,0,0,0,0,0,0,0,0,0,0,0,1,0,0,0],[0,0,0,0,0,0,0,0,-3,3,0,0,-2,-1,0,0],[0,0,0,0,0,0,0,0,2,-2,0,0,1,1,0,0],[-3,0,3,0,0,0,0,0,-2,0,-1,0,0,0,0,0],[0,0,0,0,-3,0,3,0,0,0,0,0,-2,0,-1,0],[9,-9,-9,9,6,3,-6,-3,6,-6,3,-3,4,2,2,1],[-6,6,6,-6,-3,-3,3,3,-4,4,-2,2,-2,-2,-1,-1],[2,0,-2,0,0,0,0,0,1,0,1,0,0,0,0,0],[0,0,0,0,2,0,-2,0,0,0,0,0,1,0,1,0],[-6,6,6,-6,-4,-2,4,2,-3,3,-3,3,-2,-1,-2,-1],[4,-4,-4,4,2,2,-2,-2,2,-2,2,-2,1,1,1,1]],f=t=&gt;{let e=[];for(let s=0;s&lt;16;++s){e[s]=0;for(let r=0;r&lt;16;++r)e[s]+=u[s][r]*t[r]}return e},p=(t,e,s)=&gt;{const r=e*e,n=s*s,o=e*e*e,i=s*s*s;return t[0]+t[1]*e+t[2]*r+t[3]*o+t[4]*s+t[5]*s*e+t[6]*s*r+t[7]*s*o+t[8]*n+t[9]*n*e+t[10]*n*r+t[11]*n*o+t[12]*i+t[13]*i*e+t[14]*i*r+t[15]*i*o},y=t=&gt;{let e=[],s=[],r=[];for(let s=0;s&lt;4;++s)e[s]=[],e[s][0]=n(t[0][s],t[1][s],t[2][s],t[3][s]),e[s][1]=[],e[s][1].push(...n(...e[s][0][0])),e[s][1].push(...n(...e[s][0][1])),e[s][2]=[],e[s][2].push(...n(...e[s][1][0])),e[s][2].push(...n(...e[s][1][1])),e[s][2].push(...n(...e[s][1][2])),e[s][2].push(...n(...e[s][1][3]));for(let t=0;t&lt;8;++t){s[t]=[];for(let r=0;r&lt;4;++r)s[t][r]=[],s[t][r][0]=n(e[0][2][t][r],e[1][2][t][r],e[2][2][t][r],e[3][2][t][r]),s[t][r][1]=[],s[t][r][1].push(...n(...s[t][r][0][0])),s[t][r][1].push(...n(...s[t][r][0][1])),s[t][r][2]=[],s[t][r][2].push(...n(...s[t][r][1][0])),s[t][r][2].push(...n(...s[t][r][1][1])),s[t][r][2].push(...n(...s[t][r][1][2])),s[t][r][2].push(...n(...s[t][r][1][3]))}for(let t=0;t&lt;8;++t){r[t]=[];for(let e=0;e&lt;8;++e)r[t][e]=[],r[t][e][0]=s[t][0][2][e],r[t][e][1]=s[t][1][2][e],r[t][e][2]=s[t][2][2][e],r[t][e][3]=s[t][3][2][e]}return r};class x{constructor(t,e){this.x=t||0,this.y=e||0}toString(){return`(x=${this.x}, y=${this.y})`}clone(){return new x(this.x,this.y)}add(t){return new x(this.x+t.x,this.y+t.y)}scale(t){return void 0===t.x?new x(this.x*t,this.y*t):new x(this.x*t.x,this.y*t.y)}distSquared(t){let e=this.x-t.x,s=this.y-t.y;return e*e+s*s}transform(t){let e=this.x*t.a+this.y*t.c+t.e,s=this.x*t.b+this.y*t.d+t.f;return new x(e,s)}}class g{constructor(t,e,s,r,n,o){void 0===t?(this.a=1,this.b=0,this.c=0,this.d=1,this.e=0,this.f=0):(this.a=t,this.b=e,this.c=s,this.d=r,this.e=n,this.f=o)}toString(){return`affine: ${this.a} ${this.c} ${this.e} \n       ${this.b} ${this.d} ${this.f}`}append(t){t instanceof g||console.error(&quot;mesh.js: argument to Affine.append is not affine!&quot;);let e=this.a*t.a+this.c*t.b,s=this.b*t.a+this.d*t.b,r=this.a*t.c+this.c*t.d,n=this.b*t.c+this.d*t.d,o=this.a*t.e+this.c*t.f+this.e,i=this.b*t.e+this.d*t.f+this.f;return new g(e,s,r,n,o,i)}}class w{constructor(t,e){this.nodes=t,this.colors=e}paintCurve(t,e){if(o(this.nodes)&gt;r){const s=n(...this.nodes);let r=[[],[]],o=[[],[]];for(let t=0;t&lt;4;++t)r[0][t]=this.colors[0][t],r[1][t]=(this.colors[0][t]+this.colors[1][t])/2,o[0][t]=r[1][t],o[1][t]=this.colors[1][t];let i=new w(s[0],r),a=new w(s[1],o);i.paintCurve(t,e),a.paintCurve(t,e)}else{let s=Math.round(this.nodes[0].x);if(s&gt;=0&amp;&amp;s&lt;e){let r=4*(~~this.nodes[0].y*e+s);t[r]=Math.round(this.colors[0][0]),t[r+1]=Math.round(this.colors[0][1]),t[r+2]=Math.round(this.colors[0][2]),t[r+3]=Math.round(this.colors[0][3])}}}}class m{constructor(t,e){this.nodes=t,this.colors=e}split(){let t=[[],[],[],[]],e=[[],[],[],[]],s=[[[],[]],[[],[]]],r=[[[],[]],[[],[]]];for(let s=0;s&lt;4;++s){const r=n(this.nodes[0][s],this.nodes[1][s],this.nodes[2][s],this.nodes[3][s]);t[0][s]=r[0][0],t[1][s]=r[0][1],t[2][s]=r[0][2],t[3][s]=r[0][3],e[0][s]=r[1][0],e[1][s]=r[1][1],e[2][s]=r[1][2],e[3][s]=r[1][3]}for(let t=0;t&lt;4;++t)s[0][0][t]=this.colors[0][0][t],s[0][1][t]=this.colors[0][1][t],s[1][0][t]=(this.colors[0][0][t]+this.colors[1][0][t])/2,s[1][1][t]=(this.colors[0][1][t]+this.colors[1][1][t])/2,r[0][0][t]=s[1][0][t],r[0][1][t]=s[1][1][t],r[1][0][t]=this.colors[1][0][t],r[1][1][t]=this.colors[1][1][t];return[new m(t,s),new m(e,r)]}paint(t,e){let s,n=!1;for(let t=0;t&lt;4;++t)if((s=o([this.nodes[0][t],this.nodes[1][t],this.nodes[2][t],this.nodes[3][t]]))&gt;r){n=!0;break}if(n){let s=this.split();s[0].paint(t,e),s[1].paint(t,e)}else{new w([...this.nodes[0]],[...this.colors[0]]).paintCurve(t,e)}}}class b{constructor(t){this.readMesh(t),this.type=t.getAttribute(&quot;type&quot;)||&quot;bilinear&quot;}readMesh(t){let e=[[]],s=[[]],r=Number(t.getAttribute(&quot;x&quot;)),n=Number(t.getAttribute(&quot;y&quot;));e[0][0]=new x(r,n);let o=t.children;for(let t=0,r=o.length;t&lt;r;++t){e[3*t+1]=[],e[3*t+2]=[],e[3*t+3]=[],s[t+1]=[];let r=o[t].children;for(let n=0,o=r.length;n&lt;o;++n){let o=r[n].children;for(let r=0,i=o.length;r&lt;i;++r){let i=r;0!==t&amp;&amp;++i;let h,d=o[r].getAttribute(&quot;path&quot;),c=&quot;l&quot;;null!=d&amp;&amp;(c=(h=d.match(/\s*([lLcC])\s*(.*)/))[1]);let u=l(h[2]);switch(c){case&quot;l&quot;:0===i?(e[3*t][3*n+3]=u[0].add(e[3*t][3*n]),e[3*t][3*n+1]=a(e[3*t][3*n],e[3*t][3*n+3]),e[3*t][3*n+2]=a(e[3*t][3*n+3],e[3*t][3*n])):1===i?(e[3*t+3][3*n+3]=u[0].add(e[3*t][3*n+3]),e[3*t+1][3*n+3]=a(e[3*t][3*n+3],e[3*t+3][3*n+3]),e[3*t+2][3*n+3]=a(e[3*t+3][3*n+3],e[3*t][3*n+3])):2===i?(0===n&amp;&amp;(e[3*t+3][3*n+0]=u[0].add(e[3*t+3][3*n+3])),e[3*t+3][3*n+1]=a(e[3*t+3][3*n],e[3*t+3][3*n+3]),e[3*t+3][3*n+2]=a(e[3*t+3][3*n+3],e[3*t+3][3*n])):(e[3*t+1][3*n]=a(e[3*t][3*n],e[3*t+3][3*n]),e[3*t+2][3*n]=a(e[3*t+3][3*n],e[3*t][3*n]));break;case&quot;L&quot;:0===i?(e[3*t][3*n+3]=u[0],e[3*t][3*n+1]=a(e[3*t][3*n],e[3*t][3*n+3]),e[3*t][3*n+2]=a(e[3*t][3*n+3],e[3*t][3*n])):1===i?(e[3*t+3][3*n+3]=u[0],e[3*t+1][3*n+3]=a(e[3*t][3*n+3],e[3*t+3][3*n+3]),e[3*t+2][3*n+3]=a(e[3*t+3][3*n+3],e[3*t][3*n+3])):2===i?(0===n&amp;&amp;(e[3*t+3][3*n+0]=u[0]),e[3*t+3][3*n+1]=a(e[3*t+3][3*n],e[3*t+3][3*n+3]),e[3*t+3][3*n+2]=a(e[3*t+3][3*n+3],e[3*t+3][3*n])):(e[3*t+1][3*n]=a(e[3*t][3*n],e[3*t+3][3*n]),e[3*t+2][3*n]=a(e[3*t+3][3*n],e[3*t][3*n]));break;case&quot;c&quot;:0===i?(e[3*t][3*n+1]=u[0].add(e[3*t][3*n]),e[3*t][3*n+2]=u[1].add(e[3*t][3*n]),e[3*t][3*n+3]=u[2].add(e[3*t][3*n])):1===i?(e[3*t+1][3*n+3]=u[0].add(e[3*t][3*n+3]),e[3*t+2][3*n+3]=u[1].add(e[3*t][3*n+3]),e[3*t+3][3*n+3]=u[2].add(e[3*t][3*n+3])):2===i?(e[3*t+3][3*n+2]=u[0].add(e[3*t+3][3*n+3]),e[3*t+3][3*n+1]=u[1].add(e[3*t+3][3*n+3]),0===n&amp;&amp;(e[3*t+3][3*n+0]=u[2].add(e[3*t+3][3*n+3]))):(e[3*t+2][3*n]=u[0].add(e[3*t+3][3*n]),e[3*t+1][3*n]=u[1].add(e[3*t+3][3*n]));break;case&quot;C&quot;:0===i?(e[3*t][3*n+1]=u[0],e[3*t][3*n+2]=u[1],e[3*t][3*n+3]=u[2]):1===i?(e[3*t+1][3*n+3]=u[0],e[3*t+2][3*n+3]=u[1],e[3*t+3][3*n+3]=u[2]):2===i?(e[3*t+3][3*n+2]=u[0],e[3*t+3][3*n+1]=u[1],0===n&amp;&amp;(e[3*t+3][3*n+0]=u[2])):(e[3*t+2][3*n]=u[0],e[3*t+1][3*n]=u[1]);break;default:console.error(&quot;mesh.js: &quot;+c+&quot; invalid path type.&quot;)}if(0===t&amp;&amp;0===n||r&gt;0){let e=window.getComputedStyle(o[r]).stopColor.match(/^rgb\s*\(\s*(\d+)\s*,\s*(\d+)\s*,\s*(\d+)\s*\)$/i),a=window.getComputedStyle(o[r]).stopOpacity,h=255;a&amp;&amp;(h=Math.floor(255*a)),e&amp;&amp;(0===i?(s[t][n]=[],s[t][n][0]=Math.floor(e[1]),s[t][n][1]=Math.floor(e[2]),s[t][n][2]=Math.floor(e[3]),s[t][n][3]=h):1===i?(s[t][n+1]=[],s[t][n+1][0]=Math.floor(e[1]),s[t][n+1][1]=Math.floor(e[2]),s[t][n+1][2]=Math.floor(e[3]),s[t][n+1][3]=h):2===i?(s[t+1][n+1]=[],s[t+1][n+1][0]=Math.floor(e[1]),s[t+1][n+1][1]=Math.floor(e[2]),s[t+1][n+1][2]=Math.floor(e[3]),s[t+1][n+1][3]=h):3===i&amp;&amp;(s[t+1][n]=[],s[t+1][n][0]=Math.floor(e[1]),s[t+1][n][1]=Math.floor(e[2]),s[t+1][n][2]=Math.floor(e[3]),s[t+1][n][3]=h))}}e[3*t+1][3*n+1]=new x,e[3*t+1][3*n+2]=new x,e[3*t+2][3*n+1]=new x,e[3*t+2][3*n+2]=new x,e[3*t+1][3*n+1].x=(-4*e[3*t][3*n].x+6*(e[3*t][3*n+1].x+e[3*t+1][3*n].x)+-2*(e[3*t][3*n+3].x+e[3*t+3][3*n].x)+3*(e[3*t+3][3*n+1].x+e[3*t+1][3*n+3].x)+-1*e[3*t+3][3*n+3].x)/9,e[3*t+1][3*n+2].x=(-4*e[3*t][3*n+3].x+6*(e[3*t][3*n+2].x+e[3*t+1][3*n+3].x)+-2*(e[3*t][3*n].x+e[3*t+3][3*n+3].x)+3*(e[3*t+3][3*n+2].x+e[3*t+1][3*n].x)+-1*e[3*t+3][3*n].x)/9,e[3*t+2][3*n+1].x=(-4*e[3*t+3][3*n].x+6*(e[3*t+3][3*n+1].x+e[3*t+2][3*n].x)+-2*(e[3*t+3][3*n+3].x+e[3*t][3*n].x)+3*(e[3*t][3*n+1].x+e[3*t+2][3*n+3].x)+-1*e[3*t][3*n+3].x)/9,e[3*t+2][3*n+2].x=(-4*e[3*t+3][3*n+3].x+6*(e[3*t+3][3*n+2].x+e[3*t+2][3*n+3].x)+-2*(e[3*t+3][3*n].x+e[3*t][3*n+3].x)+3*(e[3*t][3*n+2].x+e[3*t+2][3*n].x)+-1*e[3*t][3*n].x)/9,e[3*t+1][3*n+1].y=(-4*e[3*t][3*n].y+6*(e[3*t][3*n+1].y+e[3*t+1][3*n].y)+-2*(e[3*t][3*n+3].y+e[3*t+3][3*n].y)+3*(e[3*t+3][3*n+1].y+e[3*t+1][3*n+3].y)+-1*e[3*t+3][3*n+3].y)/9,e[3*t+1][3*n+2].y=(-4*e[3*t][3*n+3].y+6*(e[3*t][3*n+2].y+e[3*t+1][3*n+3].y)+-2*(e[3*t][3*n].y+e[3*t+3][3*n+3].y)+3*(e[3*t+3][3*n+2].y+e[3*t+1][3*n].y)+-1*e[3*t+3][3*n].y)/9,e[3*t+2][3*n+1].y=(-4*e[3*t+3][3*n].y+6*(e[3*t+3][3*n+1].y+e[3*t+2][3*n].y)+-2*(e[3*t+3][3*n+3].y+e[3*t][3*n].y)+3*(e[3*t][3*n+1].y+e[3*t+2][3*n+3].y)+-1*e[3*t][3*n+3].y)/9,e[3*t+2][3*n+2].y=(-4*e[3*t+3][3*n+3].y+6*(e[3*t+3][3*n+2].y+e[3*t+2][3*n+3].y)+-2*(e[3*t+3][3*n].y+e[3*t][3*n+3].y)+3*(e[3*t][3*n+2].y+e[3*t+2][3*n].y)+-1*e[3*t][3*n].y)/9}}this.nodes=e,this.colors=s}paintMesh(t,e){let s=(this.nodes.length-1)/3,r=(this.nodes[0].length-1)/3;if(&quot;bilinear&quot;===this.type||s&lt;2||r&lt;2){let n;for(let o=0;o&lt;s;++o)for(let s=0;s&lt;r;++s){let r=[];for(let t=3*o,e=3*o+4;t&lt;e;++t)r.push(this.nodes[t].slice(3*s,3*s+4));let i=[];i.push(this.colors[o].slice(s,s+2)),i.push(this.colors[o+1].slice(s,s+2)),(n=new m(r,i)).paint(t,e)}}else{let n,o,a,h,l,d,u;const x=s,g=r;s++,r++;let w=new Array(s);for(let t=0;t&lt;s;++t){w[t]=new Array(r);for(let e=0;e&lt;r;++e)w[t][e]=[],w[t][e][0]=this.nodes[3*t][3*e],w[t][e][1]=this.colors[t][e]}for(let t=0;t&lt;s;++t)for(let e=0;e&lt;r;++e)0!==t&amp;&amp;t!==x&amp;&amp;(n=i(w[t-1][e][0],w[t][e][0]),o=i(w[t+1][e][0],w[t][e][0]),w[t][e][2]=c(w[t-1][e][1],w[t][e][1],w[t+1][e][1],n,o)),0!==e&amp;&amp;e!==g&amp;&amp;(n=i(w[t][e-1][0],w[t][e][0]),o=i(w[t][e+1][0],w[t][e][0]),w[t][e][3]=c(w[t][e-1][1],w[t][e][1],w[t][e+1][1],n,o));for(let t=0;t&lt;r;++t){w[0][t][2]=[],w[x][t][2]=[];for(let e=0;e&lt;4;++e)n=i(w[1][t][0],w[0][t][0]),o=i(w[x][t][0],w[x-1][t][0]),w[0][t][2][e]=n&gt;0?2*(w[1][t][1][e]-w[0][t][1][e])/n-w[1][t][2][e]:0,w[x][t][2][e]=o&gt;0?2*(w[x][t][1][e]-w[x-1][t][1][e])/o-w[x-1][t][2][e]:0}for(let t=0;t&lt;s;++t){w[t][0][3]=[],w[t][g][3]=[];for(let e=0;e&lt;4;++e)n=i(w[t][1][0],w[t][0][0]),o=i(w[t][g][0],w[t][g-1][0]),w[t][0][3][e]=n&gt;0?2*(w[t][1][1][e]-w[t][0][1][e])/n-w[t][1][3][e]:0,w[t][g][3][e]=o&gt;0?2*(w[t][g][1][e]-w[t][g-1][1][e])/o-w[t][g-1][3][e]:0}for(let s=0;s&lt;x;++s)for(let r=0;r&lt;g;++r){let n=i(w[s][r][0],w[s+1][r][0]),o=i(w[s][r+1][0],w[s+1][r+1][0]),c=i(w[s][r][0],w[s][r+1][0]),x=i(w[s+1][r][0],w[s+1][r+1][0]),g=[[],[],[],[]];for(let t=0;t&lt;4;++t){(d=[])[0]=w[s][r][1][t],d[1]=w[s+1][r][1][t],d[2]=w[s][r+1][1][t],d[3]=w[s+1][r+1][1][t],d[4]=w[s][r][2][t]*n,d[5]=w[s+1][r][2][t]*n,d[6]=w[s][r+1][2][t]*o,d[7]=w[s+1][r+1][2][t]*o,d[8]=w[s][r][3][t]*c,d[9]=w[s+1][r][3][t]*x,d[10]=w[s][r+1][3][t]*c,d[11]=w[s+1][r+1][3][t]*x,d[12]=0,d[13]=0,d[14]=0,d[15]=0,u=f(d);for(let e=0;e&lt;9;++e){g[t][e]=[];for(let s=0;s&lt;9;++s)g[t][e][s]=p(u,e/8,s/8),g[t][e][s]&gt;255?g[t][e][s]=255:g[t][e][s]&lt;0&amp;&amp;(g[t][e][s]=0)}}h=[];for(let t=3*s,e=3*s+4;t&lt;e;++t)h.push(this.nodes[t].slice(3*r,3*r+4));l=y(h);for(let s=0;s&lt;8;++s)for(let r=0;r&lt;8;++r)(a=new m(l[s][r],[[[g[0][s][r],g[1][s][r],g[2][s][r],g[3][s][r]],[g[0][s][r+1],g[1][s][r+1],g[2][s][r+1],g[3][s][r+1]]],[[g[0][s+1][r],g[1][s+1][r],g[2][s+1][r],g[3][s+1][r]],[g[0][s+1][r+1],g[1][s+1][r+1],g[2][s+1][r+1],g[3][s+1][r+1]]]])).paint(t,e)}}}transform(t){if(t instanceof x)for(let e=0,s=this.nodes.length;e&lt;s;++e)for(let s=0,r=this.nodes[0].length;s&lt;r;++s)this.nodes[e][s]=this.nodes[e][s].add(t);else if(t instanceof g)for(let e=0,s=this.nodes.length;e&lt;s;++e)for(let s=0,r=this.nodes[0].length;s&lt;r;++s)this.nodes[e][s]=this.nodes[e][s].transform(t)}scale(t){for(let e=0,s=this.nodes.length;e&lt;s;++e)for(let s=0,r=this.nodes[0].length;s&lt;r;++s)this.nodes[e][s]=this.nodes[e][s].scale(t)}}document.querySelectorAll(&quot;rect,circle,ellipse,path,text&quot;).forEach((r,n)=&gt;{let o=r.getAttribute(&quot;id&quot;);o||(o=&quot;patchjs_shape&quot;+n,r.setAttribute(&quot;id&quot;,o));const i=r.style.fill.match(/^url\(\s*&quot;?\s*#([^\s&quot;]+)&quot;?\s*\)/),a=r.style.stroke.match(/^url\(\s*&quot;?\s*#([^\s&quot;]+)&quot;?\s*\)/);if(i&amp;&amp;i[1]){const a=document.getElementById(i[1]);if(a&amp;&amp;&quot;meshgradient&quot;===a.nodeName){const i=r.getBBox();let l=document.createElementNS(s,&quot;canvas&quot;);d(l,{width:i.width,height:i.height});const c=l.getContext(&quot;2d&quot;);let u=c.createImageData(i.width,i.height);const f=new b(a);&quot;objectBoundingBox&quot;===a.getAttribute(&quot;gradientUnits&quot;)&amp;&amp;f.scale(new x(i.width,i.height));const p=a.getAttribute(&quot;gradientTransform&quot;);null!=p&amp;&amp;f.transform(h(p)),&quot;userSpaceOnUse&quot;===a.getAttribute(&quot;gradientUnits&quot;)&amp;&amp;f.transform(new x(-i.x,-i.y)),f.paintMesh(u.data,l.width),c.putImageData(u,0,0);const y=document.createElementNS(t,&quot;image&quot;);d(y,{width:i.width,height:i.height,x:i.x,y:i.y});let g=l.toDataURL();y.setAttributeNS(e,&quot;xlink:href&quot;,g),r.parentNode.insertBefore(y,r),r.style.fill=&quot;none&quot;;const w=document.createElementNS(t,&quot;use&quot;);w.setAttributeNS(e,&quot;xlink:href&quot;,&quot;#&quot;+o);const m=&quot;patchjs_clip&quot;+n,M=document.createElementNS(t,&quot;clipPath&quot;);M.setAttribute(&quot;id&quot;,m),M.appendChild(w),r.parentElement.insertBefore(M,r),y.setAttribute(&quot;clip-path&quot;,&quot;url(#&quot;+m+&quot;)&quot;),u=null,l=null,g=null}}if(a&amp;&amp;a[1]){const o=document.getElementById(a[1]);if(o&amp;&amp;&quot;meshgradient&quot;===o.nodeName){const i=parseFloat(r.style.strokeWidth.slice(0,-2))*(parseFloat(r.style.strokeMiterlimit)||parseFloat(r.getAttribute(&quot;stroke-miterlimit&quot;))||1),a=r.getBBox(),l=Math.trunc(a.width+i),c=Math.trunc(a.height+i),u=Math.trunc(a.x-i/2),f=Math.trunc(a.y-i/2);let p=document.createElementNS(s,&quot;canvas&quot;);d(p,{width:l,height:c});const y=p.getContext(&quot;2d&quot;);let g=y.createImageData(l,c);const w=new b(o);&quot;objectBoundingBox&quot;===o.getAttribute(&quot;gradientUnits&quot;)&amp;&amp;w.scale(new x(l,c));const m=o.getAttribute(&quot;gradientTransform&quot;);null!=m&amp;&amp;w.transform(h(m)),&quot;userSpaceOnUse&quot;===o.getAttribute(&quot;gradientUnits&quot;)&amp;&amp;w.transform(new x(-u,-f)),w.paintMesh(g.data,p.width),y.putImageData(g,0,0);const M=document.createElementNS(t,&quot;image&quot;);d(M,{width:l,height:c,x:0,y:0});let S=p.toDataURL();M.setAttributeNS(e,&quot;xlink:href&quot;,S);const k=&quot;pattern_clip&quot;+n,A=document.createElementNS(t,&quot;pattern&quot;);d(A,{id:k,patternUnits:&quot;userSpaceOnUse&quot;,width:l,height:c,x:u,y:f}),A.appendChild(M),o.parentNode.appendChild(A),r.style.stroke=&quot;url(#&quot;+k+&quot;)&quot;,g=null,p=null,S=null}}})}();
</script>
</svg>
